# xmcd CD database file
#
# Track frame offsets:
#	150
#	17703
#	36917
#	57757
#	69470
#	87311
#	100687
#	119196
#	133669
#	153898
#	168216
#	189295
#	204411
#
# Disc length: 2967 seconds
#
# Revision: 10
# Processed by: cddbd v1.5.1PL0 Copyright (c) Steve Scherf et al.
# Submitted via: CDex 1.40Release
#
DISCID=a80b950d
DTITLE=Michael Bublé - Michael Bublé
DYEAR=2002
DGENRE=Jazz
TTITLE0=Fever
TTITLE1=Moondance
TTITLE2=Kissing A Fool
TTITLE3=For Once In My Life
TTITLE4=How Can You Mend A Broken Heart
TTITLE5=Summer Wind
TTITLE6=You'll Never Find Another Love Like Mine
TTITLE7=Crazy Little Thing Called Love
TTITLE8=Put Your Head On My Shoulder
TTITLE9=Sway
TTITLE10=The Way You Look Tonight
TTITLE11=Come Fly With Me
TTITLE12=That's All
EXTD=YEAR: 2002 ID3G: 8
EXTT0=
EXTT1=
EXTT2=
EXTT3=
EXTT4=
EXTT5=
EXTT6=
EXTT7=
EXTT8=
EXTT9=
EXTT10=
EXTT11=
EXTT12=
PLAYORDER=
